<svg width="36" height="36" viewBox="0 0 36 36" fill="none" xmlns="http://www.w3.org/2000/svg">
<path fill-rule="evenodd" clip-rule="evenodd" d="M18 34.5C27.1127 34.5 34.5 27.1127 34.5 18C34.5 8.8873 27.1127 1.5 18 1.5C8.8873 1.5 1.5 8.8873 1.5 18C1.5 27.1127 8.8873 34.5 18 34.5ZM18 36C27.9411 36 36 27.9411 36 18C36 8.05887 27.9411 0 18 0C8.05887 0 0 8.05887 0 18C0 27.9411 8.05887 36 18 36Z" fill="#FFFFFF"/>
<path d="M15.8596 22.7504C15.7674 21.5514 15.7674 20.3524 15.6751 19.0612C15.6751 18.4157 15.3985 17.9545 14.6606 17.9545C14.1995 17.9545 13.7384 18.0467 13.6461 17.4011C13.5539 16.5711 13.3694 15.6488 13.6461 14.8188C13.6461 14.7265 14.015 14.5421 14.1995 14.5421C15.5829 14.8188 15.8596 14.0809 15.8596 12.9742C15.8596 10.0229 18.3498 8.45504 21.5777 8.63949C22.5 8.73172 22.5 9.46955 22.5 10.1151C22.4078 10.7607 22.7767 11.683 21.5777 11.683C20.5632 11.5908 19.8254 11.9597 19.8254 13.1587C19.8254 13.9887 19.9176 14.6343 20.9321 14.7265C22.4078 14.8188 22.1311 15.8333 22.1311 16.8478C22.2233 17.9545 21.6699 18.3234 20.6554 18.3234C19.6409 18.3234 19.4565 18.8768 19.4565 19.7991C19.4565 21.8281 19.4565 23.7649 19.3643 25.7939C19.272 27.0851 18.9953 27.1773 17.243 27.085C16.0441 27.085 15.8596 26.5317 15.9518 25.5172C15.7674 24.6871 15.7674 23.7649 15.8596 22.7504Z" fill="#FFFFFF"/>
</svg>