<svg id="visual" viewBox="0 0 900 600" width="900" height="600" xmlns="http://www.w3.org/2000/svg" xmlns:xlink="http://www.w3.org/1999/xlink" version="1.1"><path d="M0 396L16.7 393.3C33.3 390.7 66.7 385.3 100 379.8C133.3 374.3 166.7 368.7 200 363.7C233.3 358.7 266.7 354.3 300 354.7C333.3 355 366.7 360 400 372.7C433.3 385.3 466.7 405.7 500 403.8C533.3 402 566.7 378 600 377.3C633.3 376.7 666.7 399.3 700 401C733.3 402.7 766.7 383.3 800 371.7C833.3 360 866.7 356 883.3 354L900 352L900 601L883.3 601C866.7 601 833.3 601 800 601C766.7 601 733.3 601 700 601C666.7 601 633.3 601 600 601C566.7 601 533.3 601 500 601C466.7 601 433.3 601 400 601C366.7 601 333.3 601 300 601C266.7 601 233.3 601 200 601C166.7 601 133.3 601 100 601C66.7 601 33.3 601 16.7 601L0 601Z" fill="#fba81f"></path><path d="M0 431L16.7 433.7C33.3 436.3 66.7 441.7 100 441.2C133.3 440.7 166.7 434.3 200 430.2C233.3 426 266.7 424 300 426.7C333.3 429.3 366.7 436.7 400 442.8C433.3 449 466.7 454 500 452.7C533.3 451.3 566.7 443.7 600 441.3C633.3 439 666.7 442 700 441.2C733.3 440.3 766.7 435.7 800 437.5C833.3 439.3 866.7 447.7 883.3 451.8L900 456L900 601L883.3 601C866.7 601 833.3 601 800 601C766.7 601 733.3 601 700 601C666.7 601 633.3 601 600 601C566.7 601 533.3 601 500 601C466.7 601 433.3 601 400 601C366.7 601 333.3 601 300 601C266.7 601 233.3 601 200 601C166.7 601 133.3 601 100 601C66.7 601 33.3 601 16.7 601L0 601Z" fill="#db6894"></path><path d="M0 473L16.7 479.3C33.3 485.7 66.7 498.3 100 498.8C133.3 499.3 166.7 487.7 200 483.5C233.3 479.3 266.7 482.7 300 484.7C333.3 486.7 366.7 487.3 400 485.3C433.3 483.3 466.7 478.7 500 478.3C533.3 478 566.7 482 600 482.8C633.3 483.7 666.7 481.3 700 485.3C733.3 489.3 766.7 499.7 800 501.7C833.3 503.7 866.7 497.3 883.3 494.2L900 491L900 601L883.3 601C866.7 601 833.3 601 800 601C766.7 601 733.3 601 700 601C666.7 601 633.3 601 600 601C566.7 601 533.3 601 500 601C466.7 601 433.3 601 400 601C366.7 601 333.3 601 300 601C266.7 601 233.3 601 200 601C166.7 601 133.3 601 100 601C66.7 601 33.3 601 16.7 601L0 601Z" fill="#566589"></path></svg>