<svg width="36" height="36" viewBox="0 0 36 36" fill="none" xmlns="http://www.w3.org/2000/svg">
<path fill-rule="evenodd" clip-rule="evenodd" d="M18 34.5C27.1127 34.5 34.5 27.1127 34.5 18C34.5 8.8873 27.1127 1.5 18 1.5C8.8873 1.5 1.5 8.8873 1.5 18C1.5 27.1127 8.8873 34.5 18 34.5ZM18 36C27.9411 36 36 27.9411 36 18C36 8.05887 27.9411 0 18 0C8.05887 0 0 8.05887 0 18C0 27.9411 8.05887 36 18 36Z" fill="#BC60E3"/>
<path d="M18.6418 8.625C21.0312 8.70758 23.25 9.53338 24.8714 11.6805C27.3462 14.9838 28.3702 18.6173 26.1515 22.1683C22.738 27.6187 18.1298 28.4446 12.9243 25.389C9.3401 23.2419 8.31606 18.5348 9.42544 14.9012C10.5348 11.0199 14.119 8.625 18.6418 8.625ZM13.3509 20.7645C13.6069 21.2599 13.8629 21.6729 14.0336 22.1683C14.2043 22.5813 14.5456 22.7464 14.9723 22.7464C15.4844 22.7464 15.7404 22.5813 15.8257 22.1683C15.911 21.6729 15.655 21.5903 15.3137 21.5077C14.631 21.3425 14.0336 20.847 13.3509 20.7645C12.8389 19.7735 12.1562 18.8651 12.3269 17.6264C12.6682 15.8096 13.0096 13.9102 13.2656 12.176C13.9483 12.0108 14.2896 12.176 14.631 12.4237C15.5697 13.0018 16.5084 13.3321 17.7031 13.0018C18.1298 12.9192 18.6418 13.0018 19.1538 13.0844C20.0925 13.2496 20.8606 13.167 21.6286 12.5063C22.5673 11.7631 22.994 12.0108 23.0793 13.2496C23.1647 14.4057 23.0793 15.5619 23.5914 16.718C24.4447 18.5348 23.506 20.8471 21.1166 21.5077C20.6899 21.5903 20.3486 21.7554 20.5192 22.3335C20.7752 23.3245 20.6046 24.3981 21.1166 25.389C24.274 23.9852 25.8101 22.0858 26.2368 19.1128C26.4075 17.8741 26.1515 16.5528 25.8101 15.3967C23.9327 8.87273 18.6418 8.12951 13.6923 10.6895C11.7295 11.6805 10.5348 13.6625 10.0228 15.8922C9.59611 17.709 10.1081 19.3606 10.5348 21.0948C11.1322 23.0768 12.4976 24.3154 14.375 25.1413C14.631 25.3064 15.0577 25.5542 15.2283 25.0587C15.399 24.6458 15.2283 24.3155 14.631 24.2329C13.7776 24.1503 12.9242 23.9851 12.6682 23.0767C12.4976 22.2509 11.8149 21.6729 11.3882 21.0948C12.0709 20.6819 12.7536 21.0122 13.3509 20.7645Z" fill="#BC60E3"/>
</svg>
