<svg width="262" height="233" viewBox="0 0 262 233" fill="none" xmlns="http://www.w3.org/2000/svg">
<path d="M130.666 92.961C127.607 92.961 124.579 93.5635 121.753 94.734C118.927 95.9044 116.359 97.6201 114.197 99.7829C112.034 101.946 110.318 104.513 109.148 107.339C107.977 110.165 107.375 113.194 107.375 116.252C107.375 119.311 107.977 122.34 109.148 125.165C110.318 127.991 112.034 130.559 114.197 132.722C116.359 134.884 118.927 136.6 121.753 137.77C124.579 138.941 127.607 139.543 130.666 139.543C133.725 139.543 136.753 138.941 139.579 137.77C142.405 136.6 144.972 134.884 147.135 132.722C149.298 130.559 151.014 127.991 152.184 125.165C153.355 122.34 153.957 119.311 153.957 116.252C153.957 113.194 153.355 110.165 152.184 107.339C151.014 104.513 149.298 101.946 147.135 99.7829C144.972 97.6201 142.405 95.9044 139.579 94.734C136.753 93.5635 133.725 92.961 130.666 92.961ZM65.4201 162.584L60.2805 161.278C21.9736 151.597 0 135.166 0 116.209C0 97.2512 21.9736 80.82 60.2805 71.1398L65.4201 69.844L66.8683 74.94C70.7489 88.3084 75.7124 101.338 81.7097 113.9L82.8095 116.22L81.7097 118.539C75.7024 131.097 70.7385 144.127 66.8683 157.499L65.4201 162.584ZM57.8959 83.0413C28.7792 91.2188 10.9106 103.73 10.9106 116.209C10.9106 128.676 28.7792 141.188 57.8959 149.376C61.4568 138.051 65.7562 126.971 70.7665 116.209C65.7505 105.448 61.4509 94.3685 57.8959 83.0413ZM195.912 162.584L194.464 157.477C190.587 144.11 185.619 131.083 179.611 118.528L178.511 116.209L179.611 113.889C185.617 101.33 190.584 88.2995 194.464 74.9291L195.912 69.8332L201.062 71.1289C239.358 80.8091 261.332 97.2403 261.332 116.209C261.332 135.177 239.358 151.597 201.062 161.278L195.912 162.584ZM190.565 116.209C195.792 127.522 200.115 138.64 203.436 149.376C232.564 141.188 250.421 128.676 250.421 116.209C250.421 103.73 232.553 91.2297 203.436 83.0413C199.88 94.3681 195.58 105.448 190.565 116.209ZM57.8197 82.9868L56.3714 77.9018C45.6024 39.9433 48.869 12.743 65.333 3.24798C81.4811 -6.07286 107.407 4.93574 134.575 32.822L138.277 36.6222L134.575 40.4224C124.922 50.4576 116.102 61.2624 108.202 72.7296L106.732 74.8311L104.173 75.0489C90.2783 76.1443 76.4949 78.3656 62.9592 81.6911L57.8197 82.9868ZM78.4649 10.7939C75.5467 10.7939 72.966 11.4255 70.7883 12.6777C59.9648 18.917 58.0483 40.6075 65.5072 69.8767C77.1107 67.2953 88.8701 65.473 100.711 64.4214C107.543 54.7073 115.007 45.4536 123.055 36.7202C106.068 20.1801 89.9853 10.7939 78.4649 10.7939ZM182.878 232.512C182.867 232.512 182.867 232.512 182.878 232.512C167.361 232.512 147.435 220.828 126.757 199.595L123.055 195.795L126.757 191.995C136.408 181.956 145.224 171.148 153.119 159.677L154.589 157.575L157.137 157.358C171.039 156.268 184.83 154.05 198.373 150.726L203.512 149.43L204.971 154.526C215.719 192.463 212.463 219.674 195.999 229.158C192 231.42 187.471 232.577 182.878 232.512ZM138.277 195.697C155.264 212.237 171.347 221.623 182.867 221.623C185.774 221.623 188.377 220.992 190.544 219.74C201.367 213.5 203.294 191.799 195.825 162.53C184.218 165.115 172.455 166.937 160.61 167.985C153.787 177.706 146.326 186.964 138.277 195.697ZM203.512 82.9868L198.373 81.6911C184.831 78.356 171.04 76.1346 157.137 75.0489L154.589 74.8311L153.119 72.7296C145.228 61.2588 136.411 50.4536 126.757 40.4224L123.055 36.6222L126.757 32.822C153.914 4.94663 179.829 -6.06197 195.999 3.24798C212.463 12.743 215.729 39.9433 204.971 77.8909L203.512 82.9868ZM160.61 64.4214C173.045 65.5538 184.86 67.3941 195.825 69.8767C203.294 40.6075 201.367 18.917 190.544 12.6777C179.785 6.46018 159.565 15.9879 138.277 36.7202C146.321 45.4539 153.782 54.7077 160.61 64.4214ZM78.4649 232.512C73.8676 232.579 69.3353 231.421 65.333 229.158C48.869 219.674 45.6024 192.474 56.3714 154.526L57.8088 149.43L62.9483 150.726C75.5249 153.895 89.3973 156.127 104.163 157.358L106.721 157.575L108.18 159.677C116.081 171.147 124.901 181.955 134.553 191.995L138.255 195.795L134.553 199.595C113.886 220.828 93.9597 232.512 78.4649 232.512ZM65.5072 162.53C58.0374 191.799 59.9648 213.5 70.7883 219.74C81.5355 225.87 101.745 216.419 123.055 195.697C115.01 186.957 107.546 177.7 100.711 167.985C88.8696 166.938 77.1099 165.116 65.5072 162.53ZM130.666 169.368C121.704 169.368 112.492 168.976 103.27 168.214L100.711 167.996L99.2408 165.894C94.024 158.399 89.1199 150.69 84.5408 142.788C79.9754 134.88 75.7397 126.787 71.8445 118.528L70.7665 116.209L71.8445 113.889C75.7391 105.63 79.9748 97.5366 84.5408 89.629C89.0488 81.8326 94.0032 74.058 99.2408 66.5229L100.711 64.4214L103.27 64.2036C121.505 62.6574 139.838 62.6574 158.073 64.2036L160.621 64.4214L162.08 66.5229C172.524 81.5175 181.692 97.3619 189.487 113.889L190.587 116.209L189.487 118.528C181.711 135.065 172.542 150.911 162.08 165.894L160.621 167.996L158.073 168.214C148.85 168.976 139.627 169.368 130.666 169.368ZM106.743 157.564C122.859 158.773 138.473 158.773 154.6 157.564C163.603 144.403 171.596 130.578 178.511 116.209C171.608 101.831 163.611 88.0049 154.589 74.8529C138.663 73.6442 122.669 73.6442 106.743 74.8529C97.7172 88.0024 89.7192 101.829 82.8204 116.209C89.7431 130.576 97.74 144.401 106.743 157.564Z" fill="black"/>
</svg>
