<svg width="474" height="711" viewBox="0 0 474 711" fill="none" xmlns="http://www.w3.org/2000/svg">
<path d="M236.779 355.168C236.779 323.769 249.252 293.656 271.454 271.454C293.656 249.252 323.769 236.779 355.168 236.779C386.567 236.779 416.679 249.252 438.882 271.454C461.084 293.656 473.557 323.769 473.557 355.168C473.557 386.567 461.084 416.679 438.882 438.882C416.679 461.084 386.567 473.557 355.168 473.557C323.769 473.557 293.656 461.084 271.454 438.882C249.252 416.679 236.779 386.567 236.779 355.168ZM0 591.946C0 560.548 12.4731 530.435 34.6754 508.232C56.8777 486.03 86.9905 473.557 118.389 473.557H236.779V591.946C236.779 623.345 224.305 653.458 202.103 675.66C179.901 697.862 149.788 710.336 118.389 710.336C86.9905 710.336 56.8777 697.862 34.6754 675.66C12.4731 653.458 0 623.345 0 591.946ZM236.779 0V236.779H355.168C386.567 236.779 416.679 224.305 438.882 202.103C461.084 179.901 473.557 149.788 473.557 118.389C473.557 86.9905 461.084 56.8777 438.882 34.6754C416.679 12.4731 386.567 0 355.168 0L236.779 0ZM0 118.389C0 149.788 12.4731 179.901 34.6754 202.103C56.8777 224.305 86.9905 236.779 118.389 236.779H236.779V0H118.389C86.9905 0 56.8777 12.4731 34.6754 34.6754C12.4731 56.8777 0 86.9905 0 118.389ZM0 355.168C0 386.567 12.4731 416.679 34.6754 438.882C56.8777 461.084 86.9905 473.557 118.389 473.557H236.779V236.779H118.389C86.9905 236.779 56.8777 249.252 34.6754 271.454C12.4731 293.656 0 323.769 0 355.168Z" fill="black"/>
</svg>
