<svg width="474" height="472" viewBox="0 0 474 472" fill="none" xmlns="http://www.w3.org/2000/svg">
<path d="M456.785 49.8205L359.313 2.91925C353.804 0.266512 347.607 -0.607798 341.58 0.417397C335.553 1.44259 329.993 4.31656 325.671 8.64132L139.014 178.922L57.7207 117.203C54.0531 114.421 49.5276 113.01 44.929 113.216C40.3303 113.421 35.9486 115.23 32.5436 118.327L6.4589 142.044C4.4262 143.892 2.80174 146.144 1.68953 148.656C0.577318 151.168 0.00186189 153.884 4.51064e-06 156.631C-0.00185287 159.378 0.569929 162.096 1.67874 164.609C2.78756 167.122 4.40897 169.376 6.43917 171.227L76.939 235.551L6.43917 299.875C4.40897 301.725 2.78756 303.979 1.67874 306.493C0.569929 309.006 -0.00185287 311.723 4.51064e-06 314.47C0.00186189 317.217 0.577318 319.934 1.68953 322.446C2.80174 324.957 4.4262 327.209 6.4589 329.057L32.5634 352.754C35.9683 355.852 40.35 357.661 44.9487 357.866C49.5473 358.072 54.0729 356.661 57.7405 353.879L139.033 292.16L325.691 462.441C330.008 466.766 335.564 469.641 341.589 470.666C347.614 471.692 353.808 470.817 359.313 468.163L456.825 421.261C461.842 418.84 466.073 415.052 469.033 410.333C471.993 405.614 473.561 400.155 473.557 394.585V76.4971C473.558 70.9224 471.984 65.4608 469.017 60.7413C466.049 56.0218 461.81 52.2362 456.785 49.8205ZM355.248 343.047L213.617 235.551L355.248 128.055V343.047Z" fill="black"/>
</svg>
