<svg width="652" height="636" viewBox="0 0 652 636" fill="none" xmlns="http://www.w3.org/2000/svg">
<path d="M325.793 0C145.793 0 0 145.874 0 325.793C0 469.767 93.3398 591.858 222.761 634.89C239.051 637.958 245.024 627.885 245.024 619.225C245.024 611.487 244.752 590.989 244.617 563.84C153.992 583.496 134.878 520.129 134.878 520.129C120.055 482.527 98.6339 472.482 98.6339 472.482C69.1225 452.283 100.914 452.69 100.914 452.69C133.63 454.97 150.815 486.247 150.815 486.247C179.865 536.066 227.078 521.677 245.702 513.342C248.635 492.274 257.024 477.912 266.336 469.767C193.983 461.622 117.937 433.604 117.937 308.771C117.937 273.205 130.562 244.155 151.467 221.349C147.802 213.123 136.806 180.001 154.317 135.123C154.317 135.123 181.603 126.381 243.911 168.517C269.974 161.268 297.667 157.684 325.359 157.521C353.051 157.684 380.744 161.268 406.807 168.517C468.708 126.381 495.993 135.123 495.993 135.123C513.505 180.001 502.509 213.123 499.251 221.349C520.02 244.155 532.645 273.205 532.645 308.771C532.645 433.93 456.491 461.486 384.002 469.495C395.405 479.269 405.993 499.251 405.993 529.767C405.993 573.369 405.586 608.392 405.586 618.98C405.586 627.532 411.287 637.713 427.984 634.455C558.328 591.722 651.587 469.55 651.587 325.793C651.587 145.874 505.713 0 325.793 0Z" fill="black"/>
</svg>
