<svg width="262" height="262" viewBox="0 0 262 262" fill="none" xmlns="http://www.w3.org/2000/svg">
<path d="M0 0H261.332V261.332H0V0ZM239.924 199.004C238.019 187.081 230.255 177.063 207.225 167.721C199.211 163.964 190.304 161.351 187.658 155.307C186.667 151.714 186.515 149.754 187.157 147.631C188.79 140.597 197.12 138.484 203.654 140.444C207.9 141.751 211.82 145.017 214.281 150.244C225.54 142.883 225.54 142.883 233.391 137.994C230.451 133.421 228.992 131.45 227.01 129.501C220.15 121.824 211.015 117.904 196.151 118.242L188.475 119.211C181.114 121.008 174.101 124.927 169.855 130.154C157.442 144.212 161.024 168.711 176.051 178.838C190.914 189.945 212.648 192.384 215.425 202.848C218.038 215.588 205.951 219.671 194.017 218.201C185.186 216.241 180.297 211.82 174.907 203.654L154.981 215.098C157.267 220.324 159.881 222.6 163.801 227.174C182.747 246.294 230.114 245.314 238.618 216.241C238.933 215.261 241.231 208.565 239.424 198.275L239.924 199.004ZM142.11 120.115H117.632C117.632 141.217 117.534 162.189 117.534 183.324C117.534 196.739 118.22 209.055 116.031 212.844C112.438 220.346 103.183 219.388 98.9794 218.071C94.6674 215.936 92.4788 212.996 89.9417 208.761C89.2557 207.617 88.7439 206.626 88.5588 206.626L68.6867 218.876C72.0078 225.736 76.8533 231.638 83.1035 235.395C92.4135 240.948 104.925 242.745 118.024 239.805C126.55 237.344 133.9 232.28 137.744 224.44C143.297 214.314 142.121 201.901 142.066 188.006C142.197 165.641 142.066 143.264 142.066 120.724L142.11 120.115Z" fill="black"/>
</svg>
