<svg width="474" height="474" viewBox="0 0 474 474" fill="none" xmlns="http://www.w3.org/2000/svg">
<path d="M464.6 215.666L257.833 8.91813C252.1 3.20682 244.338 0 236.246 0C228.154 0 220.392 3.20682 214.66 8.91813L171.823 51.8343L226.282 106.293C232.707 104.117 239.614 103.786 246.217 105.338C252.821 106.89 258.857 110.264 263.64 115.075C268.422 119.886 271.759 125.943 273.272 132.555C274.785 139.168 274.412 146.073 272.197 152.485L324.644 204.971C332.406 202.272 340.854 202.289 348.605 205.02C356.355 207.75 362.949 213.032 367.306 220C371.662 226.968 373.523 235.209 372.583 243.373C371.643 251.537 367.959 259.139 362.134 264.935C358.767 268.307 354.769 270.983 350.367 272.808C345.966 274.633 341.248 275.572 336.483 275.572C331.718 275.572 327 274.633 322.598 272.808C318.197 270.983 314.198 268.307 310.832 264.935C305.787 259.876 302.341 253.445 300.924 246.442C299.506 239.439 300.18 232.174 302.86 225.551L253.748 176.696V305.444C257.221 307.141 260.496 309.45 263.377 312.311C270.135 319.138 273.925 328.356 273.925 337.962C273.925 347.568 270.135 356.786 263.377 363.613C259.998 366.995 255.985 369.678 251.569 371.509C247.152 373.339 242.418 374.282 237.637 374.282C232.856 374.282 228.122 373.339 223.706 371.509C219.289 369.678 215.277 366.995 211.897 363.613C208.524 360.251 205.848 356.256 204.022 351.858C202.196 347.46 201.255 342.744 201.255 337.982C201.255 333.219 202.196 328.504 204.022 324.105C205.848 319.707 208.524 315.712 211.897 312.35C215.489 308.799 219.534 306.115 223.835 304.339V174.328C219.406 172.517 215.379 169.846 211.989 166.469C208.599 163.091 205.912 159.075 204.084 154.653C202.257 150.23 201.324 145.489 201.341 140.704C201.358 135.919 202.324 131.184 204.182 126.775L150.67 73.0063L8.87921 214.699C-2.95974 226.636 -2.95974 245.954 8.87921 257.891L215.666 464.619C218.497 467.453 221.859 469.701 225.56 471.235C229.26 472.769 233.227 473.558 237.233 473.558C241.239 473.558 245.205 472.769 248.906 471.235C252.606 469.701 255.968 467.453 258.799 464.619L464.6 258.819C467.439 255.988 469.692 252.626 471.229 248.923C472.766 245.22 473.557 241.251 473.557 237.242C473.557 233.233 472.766 229.264 471.229 225.561C469.692 221.859 467.439 218.496 464.6 215.666Z" fill="black"/>
</svg>
