<svg width="36" height="36" viewBox="0 0 36 36" fill="none" xmlns="http://www.w3.org/2000/svg">
<path fill-rule="evenodd" clip-rule="evenodd" d="M18 34.5C27.1127 34.5 34.5 27.1127 34.5 18C34.5 8.8873 27.1127 1.5 18 1.5C8.8873 1.5 1.5 8.8873 1.5 18C1.5 27.1127 8.8873 34.5 18 34.5ZM18 36C27.9411 36 36 27.9411 36 18C36 8.05887 27.9411 0 18 0C8.05887 0 0 8.05887 0 18C0 27.9411 8.05887 36 18 36Z" fill="#F87537"/>
<path d="M17.8727 26.6384C16.2923 26.6384 14.7119 26.733 13.2245 26.6384C11.0864 26.4492 10.2497 25.6922 9.87788 23.4213C9.41307 20.772 9.22715 18.2173 9.50604 15.568C9.599 14.6218 9.69196 13.5809 9.87788 12.6347C10.1568 10.6477 10.9934 9.79616 12.9457 9.32307C13.7823 9.13383 14.526 9.0392 15.3627 9.13382C17.129 9.22844 18.8953 9.22843 20.6616 9.03919C21.4982 8.94457 22.2419 9.0392 23.0786 9.13382C24.6589 9.32306 25.7745 10.1746 25.9604 11.7832C26.5182 15.7572 26.983 19.7312 26.2393 23.7052C25.8675 25.5976 25.0308 26.3545 23.1715 26.733C21.4982 26.8276 19.7319 26.733 17.8727 26.6384ZM18.2445 13.9594C16.1064 13.8648 14.2471 15.4733 14.0612 17.4603C13.8753 19.9204 15.3627 21.529 17.8727 21.7182C19.8249 21.8128 21.6842 20.1097 21.8701 17.9334C22.056 15.9464 20.3827 14.054 18.2445 13.9594ZM24.0082 12.4455C23.9152 11.8778 23.6364 11.4993 22.9856 11.4993C22.2419 11.4993 21.8701 11.9724 21.8701 12.6347C21.8701 13.2971 22.2419 13.7702 22.9856 13.7702C23.7293 13.6755 24.0082 13.2024 24.0082 12.4455Z" fill="#F87537"/>
</svg>
