<svg width="36" height="36" viewBox="0 0 36 36" fill="none" xmlns="http://www.w3.org/2000/svg">
<path fill-rule="evenodd" clip-rule="evenodd" d="M18 34.5C27.1127 34.5 34.5 27.1127 34.5 18C34.5 8.8873 27.1127 1.5 18 1.5C8.8873 1.5 1.5 8.8873 1.5 18C1.5 27.1127 8.8873 34.5 18 34.5ZM18 36C27.9411 36 36 27.9411 36 18C36 8.05887 27.9411 0 18 0C8.05887 0 0 8.05887 0 18C0 27.9411 8.05887 36 18 36Z" fill="#F87537"/>
<path d="M15.542 20.4365C15.542 19.066 15.542 17.7934 15.542 16.423C15.6399 14.661 16.6188 13.78 18.185 14.4652C18.9681 14.7589 19.4575 14.8568 20.0449 14.5631C21.5132 13.78 22.7858 14.3673 24.1562 14.8568C25.0372 15.1504 25.5267 15.8357 25.8203 16.7167C26.6034 19.2618 26.6034 21.8069 26.5056 24.352C26.5056 25.0372 26.2119 25.5267 25.4288 25.6246C25.233 25.6246 25.1351 25.6246 24.9393 25.7224C22.1984 26.2119 21.9048 26.0161 22.1984 23.2752C22.2963 22.1006 22.4921 20.9259 22.1984 19.7512C22.0026 19.1639 21.8069 18.4787 21.0238 18.3808C20.3385 18.2829 19.8491 18.7723 19.4575 19.2618C19.066 19.7512 18.9681 20.3385 18.9681 21.0238C18.9681 22.0027 18.9681 22.8837 18.9681 23.8626C18.9681 25.8203 18.8702 25.9182 17.1082 25.8203C15.4441 25.8203 15.4441 25.8203 15.4441 24.1562C15.542 22.9816 15.542 21.709 15.542 20.4365Z" fill="#F87537"/>
<path d="M10.1581 20.2406C10.1581 18.8701 10.1581 17.5976 10.1581 16.2271C10.1581 15.0525 10.8433 14.8567 11.8222 14.7588C12.899 14.7588 13.0947 15.3461 13.0947 16.2271C13.2905 18.7722 13.2905 21.3174 13.1926 23.8625C13.1926 24.7435 13.1926 25.8203 11.8222 25.8203C10.6475 25.9181 10.0602 25.4287 10.0602 24.254C10.0602 22.8836 10.0602 21.4152 10.0602 20.0448C10.0602 20.2406 10.1581 20.2406 10.1581 20.2406Z" fill="#F87537"/>
<path d="M11.0391 9.375C12.5074 9.375 13.2906 9.96233 13.2906 10.8433C13.2906 11.9201 12.018 13.1927 11.0391 13.1927C10.0602 13.1927 9.375 12.4096 9.375 11.3328C9.47289 10.0602 10.0602 9.375 11.0391 9.375Z" fill="#F87537"/>
</svg>
