<svg width="36" height="36" viewBox="0 0 36 36" fill="none" xmlns="http://www.w3.org/2000/svg">
<path fill-rule="evenodd" clip-rule="evenodd" d="M18 34.5C27.1127 34.5 34.5 27.1127 34.5 18C34.5 8.8873 27.1127 1.5 18 1.5C8.8873 1.5 1.5 8.8873 1.5 18C1.5 27.1127 8.8873 34.5 18 34.5ZM18 36C27.9411 36 36 27.9411 36 18C36 8.05887 27.9411 0 18 0C8.05887 0 0 8.05887 0 18C0 27.9411 8.05887 36 18 36Z" fill="#BC60E3"/>
<path d="M10.4851 27.4268C10.576 26.7905 10.4851 26.4268 10.6669 26.1541C11.3941 24.5178 11.0305 23.0634 10.3033 21.4271C8.84879 17.9727 8.9397 14.5183 11.7578 11.7002C14.5758 8.88219 18.0302 8.42768 21.6664 9.60944C25.3026 10.7912 27.5752 15.7001 26.9389 19.609C26.0298 24.3361 21.121 27.5177 16.0303 26.1541C15.1213 25.8814 14.3031 25.9723 13.4849 26.3359C12.485 26.7904 11.6669 27.0632 10.4851 27.4268ZM17.3939 15.3364C15.6667 16.9727 14.394 18.5181 13.1213 20.1544C14.0304 20.4271 14.394 19.8817 14.8485 19.609C16.6666 18.6999 16.6666 18.6999 17.9393 20.1544C18.1211 20.3362 18.3029 20.6089 18.7574 20.4271C19.8483 18.6999 21.6664 17.4273 22.6664 15.0637C21.8482 15.4274 21.3937 15.6091 20.9392 15.8819C20.3028 16.3364 19.6665 16.7909 18.8483 17.5181C18.4847 16.8818 17.9393 16.1546 17.3939 15.3364Z" fill="#BC60E3"/>
</svg>
